<svg width="48" height="48" viewBox="0 0 48 48" fill="none" xmlns="http://www.w3.org/2000/svg">
<path d="M23.9999 13.9961C28.0498 13.9961 31.3565 17.1908 31.4957 21.2451L31.4999 21.4961V25.5931L32.8799 28.7491C32.9489 28.907 32.9846 29.0775 32.9846 29.2499C32.9846 29.9402 32.4249 30.4999 31.7346 30.4999L26.9999 30.5014C26.9999 32.1582 25.6567 33.5014 23.9999 33.5014C22.4022 33.5014 21.0962 32.2524 21.005 30.6776L20.9994 30.4991L16.2747 30.4999C16.1034 30.4999 15.9339 30.4646 15.7767 30.3964C15.1435 30.1213 14.8532 29.3851 15.1282 28.7519L16.4999 25.594V21.496C16.5005 17.3412 19.852 13.9961 23.9999 13.9961ZM25.4994 30.4991L22.4999 30.5014C22.4999 31.3298 23.1714 32.0014 23.9999 32.0014C24.7796 32.0014 25.4203 31.4065 25.493 30.6458L25.4994 30.4991ZM23.9999 15.4961C20.6797 15.4961 18.0003 18.1703 17.9999 21.4961V25.9057L16.6559 28.9999H31.3524L29.9999 25.9067L30 21.5089L29.9962 21.2837C29.8852 18.0503 27.2414 15.4961 23.9999 15.4961Z" fill="white"/>
<circle cx="31" cy="17" r="4.5" fill="#F75555" stroke="#0A6375"/>
<rect x="0.5" y="0.5" width="47" height="47" rx="15.5" stroke="white" stroke-opacity="0.15"/>
</svg>
