<svg width="40" height="40" viewBox="0 0 40 40" fill="none" xmlns="http://www.w3.org/2000/svg">
<rect width="40" height="40" rx="20" fill="#F9FAFB"/>
<path d="M13.5 9.16663C12.9254 9.16663 12.3743 9.3949 11.968 9.80123C11.5616 10.2076 11.3334 10.7587 11.3334 11.3333V28.6666C11.3334 29.2413 11.5616 29.7924 11.968 30.1987C12.3743 30.605 12.9254 30.8333 13.5 30.8333H26.5C27.0747 30.8333 27.6258 30.605 28.0321 30.1987C28.4384 29.7924 28.6667 29.2413 28.6667 28.6666V11.3333C28.6667 10.7587 28.4384 10.2076 28.0321 9.80123C27.6258 9.3949 27.0747 9.16663 26.5 9.16663H13.5ZM20 12.4166C21.4366 12.4166 22.8144 12.9873 23.8302 14.0031C24.846 15.019 25.4167 16.3967 25.4167 17.8333C25.4167 19.2699 24.846 20.6476 23.8302 21.6635C22.8144 22.6793 21.4366 23.25 20 23.25C18.5635 23.25 17.1857 22.6793 16.1699 21.6635C15.1541 20.6476 14.5834 19.2699 14.5834 17.8333C14.5834 16.3967 15.1541 15.019 16.1699 14.0031C17.1857 12.9873 18.5635 12.4166 20 12.4166ZM20 13.5C19.5559 14.1716 19.1875 14.8975 18.96 15.6666H21.04C20.8069 14.8952 20.4561 14.1644 20 13.5ZM18.5917 13.7383C17.595 14.0741 16.75 14.7675 16.2517 15.6666H17.8334C18.0284 14.995 18.2667 14.345 18.5917 13.7383ZM21.3975 13.7383C21.7225 14.345 21.9717 14.995 22.1667 15.6666H23.7484C23.25 14.7675 22.3942 14.085 21.3975 13.7383ZM15.8075 16.75C15.7209 17.0966 15.6667 17.4541 15.6667 17.8333C15.6667 18.2125 15.7209 18.57 15.8075 18.9166H17.6384C17.595 18.5591 17.5625 18.2016 17.5625 17.8333C17.5625 17.465 17.595 17.1075 17.6384 16.75H15.8075ZM18.7325 16.75C18.6784 17.0966 18.6459 17.465 18.6459 17.8333C18.6459 18.2016 18.6784 18.5591 18.7325 18.9166H21.2675C21.3109 18.5591 21.3542 18.2016 21.3542 17.8333C21.3542 17.465 21.3109 17.0966 21.2675 16.75H18.7325ZM22.3617 16.75C22.405 17.1075 22.4375 17.465 22.4375 17.8333C22.4375 18.2016 22.405 18.5591 22.3617 18.9166H24.1925C24.2792 18.57 24.3334 18.2125 24.3334 17.8333C24.3334 17.4541 24.2792 17.0966 24.1925 16.75H22.3617ZM16.2517 20C16.75 20.8991 17.595 21.5816 18.5917 21.9283C18.2667 21.3216 18.0284 20.6825 17.8334 20H16.2517ZM18.96 20C19.1875 20.78 19.5559 21.495 20 22.1666C20.455 21.495 20.8125 20.78 21.04 20H18.96ZM22.1667 20C21.9717 20.6825 21.7225 21.3216 21.3975 21.9283C22.3942 21.5816 23.25 20.8991 23.7484 20H22.1667ZM14.5834 25.4166H25.4167V27.5833H14.5834V25.4166Z" fill="#AB92F0"/>
</svg>
