<svg width="88" height="88" viewBox="0 0 88 88" fill="none" xmlns="http://www.w3.org/2000/svg">
<g filter="url(#filter0_d_1590_4237)">
<rect x="18" y="12" width="48" height="48" rx="24" fill="#0A6375"/>
<path d="M34 31V30C34 29.4696 34.2107 28.9609 34.5858 28.5858C34.9609 28.2107 35.4696 28 36 28H38" stroke="white" stroke-width="2" stroke-linecap="round" stroke-linejoin="round"/>
<path d="M34 41V42C34 42.5304 34.2107 43.0391 34.5858 43.4142C34.9609 43.7893 35.4696 44 36 44H38" stroke="white" stroke-width="2" stroke-linecap="round" stroke-linejoin="round"/>
<path d="M46 28H48C48.5304 28 49.0391 28.2107 49.4142 28.5858C49.7893 28.9609 50 29.4696 50 30V31" stroke="white" stroke-width="2" stroke-linecap="round" stroke-linejoin="round"/>
<path d="M46 44H48C48.5304 44 49.0391 43.7893 49.4142 43.4142C49.7893 43.0391 50 42.5304 50 42V41" stroke="white" stroke-width="2" stroke-linecap="round" stroke-linejoin="round"/>
<path d="M35 36H49" stroke="white" stroke-width="2" stroke-linecap="round" stroke-linejoin="round"/>
</g>
<defs>
<filter id="filter0_d_1590_4237" x="0" y="0" width="88" height="88" filterUnits="userSpaceOnUse" color-interpolation-filters="sRGB">
<feFlood flood-opacity="0" result="BackgroundImageFix"/>
<feColorMatrix in="SourceAlpha" type="matrix" values="0 0 0 0 0 0 0 0 0 0 0 0 0 0 0 0 0 0 127 0" result="hardAlpha"/>
<feOffset dx="2" dy="8"/>
<feGaussianBlur stdDeviation="10"/>
<feComposite in2="hardAlpha" operator="out"/>
<feColorMatrix type="matrix" values="0 0 0 0 0.0392157 0 0 0 0 0.388235 0 0 0 0 0.458824 0 0 0 0.15 0"/>
<feBlend mode="normal" in2="BackgroundImageFix" result="effect1_dropShadow_1590_4237"/>
<feBlend mode="normal" in="SourceGraphic" in2="effect1_dropShadow_1590_4237" result="shape"/>
</filter>
</defs>
</svg>
