<svg width="32" height="32" viewBox="0 0 32 32" fill="none" xmlns="http://www.w3.org/2000/svg">
<path d="M23.404 22.3333C21.5287 20.4582 18.9853 19.4048 16.3333 19.4048C13.6814 19.4048 11.138 20.4582 9.26266 22.3333" stroke="#2FA2B9" stroke-width="2" stroke-linecap="round" stroke-linejoin="round"/>
<path d="M24 5.07202C22.1626 4.01121 19.979 3.72373 17.9296 4.27283C15.8802 4.82193 14.1329 6.16264 13.072 8.00002L26.928 16C27.9888 14.1626 28.2763 11.979 27.7272 9.92963C27.1781 7.88025 25.8374 6.13292 24 5.07202V5.07202Z" stroke="#2FA2B9" stroke-width="2" stroke-linecap="round" stroke-linejoin="round"/>
<path d="M22.3093 13.3334C24.52 9.50675 25.276 5.80808 24 5.07208C22.724 4.33608 19.9 6.84008 17.6907 10.6667" stroke="#2FA2B9" stroke-width="2" stroke-linecap="round" stroke-linejoin="round"/>
<path d="M20 12L16 18.928" stroke="#2FA2B9" stroke-width="2" stroke-linecap="round" stroke-linejoin="round"/>
<path d="M4 25.6667C4.41506 25.4603 4.86999 25.3466 5.33333 25.3333C5.85266 25.3225 6.36683 25.4382 6.83143 25.6705C7.29604 25.9028 7.69711 26.2447 8 26.6667C8.30289 27.0887 8.70396 27.4306 9.16857 27.6629C9.63317 27.8952 10.1473 28.0109 10.6667 28C11.186 28.0109 11.7002 27.8952 12.1648 27.6629C12.6294 27.4306 13.0304 27.0887 13.3333 26.6667C13.6362 26.2447 14.0373 25.9028 14.5019 25.6705C14.9665 25.4382 15.4807 25.3225 16 25.3333C16.5193 25.3225 17.0335 25.4382 17.4981 25.6705C17.9627 25.9028 18.3638 26.2447 18.6667 26.6667C18.9696 27.0887 19.3706 27.4306 19.8352 27.6629C20.2998 27.8952 20.814 28.0109 21.3333 28C21.8527 28.0109 22.3668 27.8952 22.8314 27.6629C23.296 27.4306 23.6971 27.0887 24 26.6667C24.3029 26.2447 24.704 25.9028 25.1686 25.6705C25.6332 25.4382 26.1473 25.3225 26.6667 25.3333C27.13 25.3466 27.5849 25.4603 28 25.6667" stroke="#2FA2B9" stroke-width="2" stroke-linecap="round" stroke-linejoin="round"/>
</svg>
