<svg width="25" height="25" viewBox="0 0 25 25" fill="none" xmlns="http://www.w3.org/2000/svg">
<path d="M18.5 5.5H6.5C4.84315 5.5 3.5 6.84315 3.5 8.5V16.5C3.5 18.1569 4.84315 19.5 6.5 19.5H18.5C20.1569 19.5 21.5 18.1569 21.5 16.5V8.5C21.5 6.84315 20.1569 5.5 18.5 5.5Z" fill="#111827"/>
<path d="M3.5 10.5H21.5M7.5 15.5H7.51M11.5 15.5H13.5M6.5 5.5H18.5C20.1569 5.5 21.5 6.84315 21.5 8.5V16.5C21.5 18.1569 20.1569 19.5 18.5 19.5H6.5C4.84315 19.5 3.5 18.1569 3.5 16.5V8.5C3.5 6.84315 4.84315 5.5 6.5 5.5Z" stroke="white" stroke-width="1.5" stroke-linecap="round" stroke-linejoin="round"/>
</svg>
