<svg width="25" height="25" viewBox="0 0 25 25" fill="none" xmlns="http://www.w3.org/2000/svg">
<g clip-path="url(#clip0_1590_6219)">
<path d="M19.5003 9.21001L14.1673 5.06201C13.6993 4.69792 13.1232 4.50024 12.5303 4.50024C11.9373 4.50024 11.3613 4.69792 10.8933 5.06201L5.55927 9.21001C5.23872 9.4593 4.97937 9.77854 4.80103 10.1434C4.62269 10.5082 4.53008 10.9089 4.53027 11.315V18.515C4.53027 19.0454 4.74099 19.5542 5.11606 19.9292C5.49113 20.3043 5.99984 20.515 6.53027 20.515H18.5303C19.0607 20.515 19.5694 20.3043 19.9445 19.9292C20.3196 19.5542 20.5303 19.0454 20.5303 18.515V11.315C20.5303 10.492 20.1503 9.71501 19.5003 9.21001Z" fill="#111827" stroke="#111827" stroke-width="1.5" stroke-linecap="round" stroke-linejoin="round"/>
<path d="M16.5001 15.5C14.2901 16.833 10.7081 16.833 8.50006 15.5" stroke="white" stroke-width="1.5" stroke-linecap="round" stroke-linejoin="round"/>
</g>
<defs>
<clipPath id="clip0_1590_6219">
<rect width="24" height="24" fill="white" transform="translate(0.5 0.5)"/>
</clipPath>
</defs>
</svg>
