<svg width="40" height="40" viewBox="0 0 40 40" fill="none" xmlns="http://www.w3.org/2000/svg">
<rect width="40" height="40" rx="20" fill="#F9FAFB"/>
<path d="M26 11H14C11.79 11 10 12.78 10 14.97V25.03C10 27.22 11.79 29 14 29H26C28.21 29 30 27.22 30 25.03V14.97C30 12.78 28.21 11 26 11ZM16.5 15.17C17.77 15.17 18.81 16.21 18.81 17.48C18.81 18.75 17.77 19.79 16.5 19.79C15.23 19.79 14.19 18.75 14.19 17.48C14.19 16.21 15.23 15.17 16.5 15.17ZM20.37 24.66C20.28 24.76 20.14 24.82 20 24.82H13C12.86 24.82 12.72 24.76 12.63 24.66C12.54 24.56 12.49 24.42 12.5 24.28C12.67 22.6 14.01 21.27 15.69 21.11C16.22 21.06 16.77 21.06 17.3 21.11C18.98 21.27 20.33 22.6 20.49 24.28C20.51 24.42 20.46 24.56 20.37 24.66ZM27 24.75H25C24.59 24.75 24.25 24.41 24.25 24C24.25 23.59 24.59 23.25 25 23.25H27C27.41 23.25 27.75 23.59 27.75 24C27.75 24.41 27.41 24.75 27 24.75ZM27 20.75H23C22.59 20.75 22.25 20.41 22.25 20C22.25 19.59 22.59 19.25 23 19.25H27C27.41 19.25 27.75 19.59 27.75 20C27.75 20.41 27.41 20.75 27 20.75ZM27 16.75H22C21.59 16.75 21.25 16.41 21.25 16C21.25 15.59 21.59 15.25 22 15.25H27C27.41 15.25 27.75 15.59 27.75 16C27.75 16.41 27.41 16.75 27 16.75Z" fill="#2FA2B9"/>
</svg>
