<svg width="40" height="40" viewBox="0 0 40 40" fill="none" xmlns="http://www.w3.org/2000/svg">
<rect width="40" height="40" rx="20" fill="#F9FAFB"/>
<path d="M23.8001 10.21C23.3901 9.79999 22.6801 10.08 22.6801 10.65V14.14C22.6801 15.6 23.9201 16.81 25.4301 16.81C26.3801 16.82 27.7001 16.82 28.8301 16.82C29.4001 16.82 29.7001 16.15 29.3001 15.75C27.8601 14.3 25.2801 11.69 23.8001 10.21Z" fill="#5FA8EE"/>
<path d="M28.5 18.19H25.61C23.24 18.19 21.31 16.26 21.31 13.89V11C21.31 10.45 20.86 10 20.31 10H16.07C12.99 10 10.5 12 10.5 15.57V24.43C10.5 28 12.99 30 16.07 30H23.93C27.01 30 29.5 28 29.5 24.43V19.19C29.5 18.64 29.05 18.19 28.5 18.19ZM19.5 25.75H15.5C15.09 25.75 14.75 25.41 14.75 25C14.75 24.59 15.09 24.25 15.5 24.25H19.5C19.91 24.25 20.25 24.59 20.25 25C20.25 25.41 19.91 25.75 19.5 25.75ZM21.5 21.75H15.5C15.09 21.75 14.75 21.41 14.75 21C14.75 20.59 15.09 20.25 15.5 20.25H21.5C21.91 20.25 22.25 20.59 22.25 21C22.25 21.41 21.91 21.75 21.5 21.75Z" fill="#5FA8EE"/>
</svg>
