<svg width="91" height="77" viewBox="0 0 91 77" fill="none" xmlns="http://www.w3.org/2000/svg">
<circle cx="36" cy="41" r="36" fill="#F9FAFB"/>
<circle cx="1" cy="70" r="1" fill="#86EFAC"/>
<circle cx="69" cy="76" r="1" fill="#FDE047"/>
<circle cx="13" cy="6.00003" r="1" fill="#E5E7EB"/>
<path opacity="0.8" fill-rule="evenodd" clip-rule="evenodd" d="M31.6 40.219V33.3C31.6 31.2579 32.4112 29.2993 33.8553 27.8553C35.2993 26.4113 37.2578 25.6 39.3 25.6C41.3421 25.6 43.3007 26.4113 44.7447 27.8553C46.1887 29.2993 47 31.2579 47 33.3V40.219C50.1812 41.165 52.5 44.113 52.5 47.6V54.2C52.5 56.2422 51.6887 58.2007 50.2447 59.6448C48.8007 61.0888 46.8421 61.9 44.8 61.9H33.8C31.7578 61.9 29.7993 61.0888 28.3553 59.6448C26.9112 58.2007 26.1 56.2422 26.1 54.2V47.6C26.1003 45.9417 26.6356 44.3277 27.6265 42.9979C28.6174 41.6681 30.0109 40.6935 31.6 40.219ZM34.9 39.9V33.3C34.9 32.1331 35.3635 31.0139 36.1887 30.1888C37.0139 29.3636 38.133 28.9 39.3 28.9C40.4669 28.9 41.5861 29.3636 42.4112 30.1888C43.2364 31.0139 43.7 32.1331 43.7 33.3V39.9H34.9Z" fill="#97EDFF"/>
<path fill-rule="evenodd" clip-rule="evenodd" d="M30.5 46.5C30.5 47.667 30.9636 48.7861 31.7887 49.6113C32.6139 50.4365 33.733 50.9 34.9 50.9C36.067 50.9 37.1861 50.4365 38.0113 49.6113C38.8364 48.7861 39.3 47.667 39.3 46.5C39.3 45.3331 38.8364 44.2139 38.0113 43.3888C37.1861 42.5636 36.067 42.1 34.9 42.1C33.733 42.1 32.6139 42.5636 31.7887 43.3888C30.9636 44.2139 30.5 45.3331 30.5 46.5ZM37.1 46.5C37.1 47.0835 36.8682 47.6431 36.4556 48.0557C36.0431 48.4683 35.4835 48.7 34.9 48.7C34.3165 48.7 33.7569 48.4683 33.3444 48.0557C32.9318 47.6431 32.7 47.0835 32.7 46.5C32.7 45.9166 32.9318 45.357 33.3444 44.9444C33.7569 44.5318 34.3165 44.3 34.9 44.3C35.4835 44.3 36.0431 44.5318 36.4556 44.9444C36.8682 45.357 37.1 45.9166 37.1 46.5Z" fill="#0A6375"/>
<path fill-rule="evenodd" clip-rule="evenodd" d="M40.3999 35.5H29.3999C27.3578 35.5 25.3993 36.3112 23.9552 37.7553C22.5112 39.1993 21.7 41.1578 21.7 43.2V49.8C21.7 51.8422 22.5112 53.8007 23.9552 55.2447C25.3993 56.6888 27.3578 57.5 29.3999 57.5H40.3999C42.4421 57.5 44.4006 56.6888 45.8447 55.2447C47.2887 53.8007 48.0999 51.8422 48.0999 49.8V43.2C48.0999 41.1578 47.2887 39.1993 45.8447 37.7553C44.4006 36.3112 42.4421 35.5 40.3999 35.5ZM23.9 43.2C23.9 41.7413 24.4794 40.3424 25.5109 39.3109C26.5423 38.2795 27.9413 37.7 29.3999 37.7H40.3999C41.8586 37.7 43.2576 38.2795 44.289 39.3109C45.3205 40.3424 45.8999 41.7413 45.8999 43.2V49.8C45.8999 51.2587 45.3205 52.6576 44.289 53.6891C43.2576 54.7205 41.8586 55.3 40.3999 55.3H29.3999C27.9413 55.3 26.5423 54.7205 25.5109 53.6891C24.4794 52.6576 23.9 51.2587 23.9 49.8V43.2Z" fill="#0A6375"/>
<path d="M29.4 36.6C29.4 36.8918 29.2841 37.1715 29.0778 37.3778C28.8715 37.5841 28.5917 37.7 28.3 37.7C28.0082 37.7 27.7284 37.5841 27.5221 37.3778C27.3158 37.1715 27.2 36.8918 27.2 36.6V28.9C27.2 27.8888 27.3991 26.8876 27.7861 25.9534C28.173 25.0191 28.7402 24.1703 29.4552 23.4553C30.1702 22.7403 31.0191 22.1731 31.9533 21.7861C32.8875 21.3992 33.8888 21.2 34.8999 21.2C35.9111 21.2 36.9124 21.3992 37.8466 21.7861C38.7808 22.1731 39.6297 22.7403 40.3447 23.4553C41.0597 24.1703 41.6269 25.0191 42.0138 25.9534C42.4008 26.8876 42.5999 27.8888 42.5999 28.9V36.6C42.5999 36.8918 42.4841 37.1715 42.2778 37.3778C42.0715 37.5841 41.7917 37.7 41.4999 37.7C41.2082 37.7 40.9284 37.5841 40.7221 37.3778C40.5158 37.1715 40.3999 36.8918 40.3999 36.6V28.9C40.3999 27.4413 39.8205 26.0424 38.789 25.0109C37.7576 23.9795 36.3586 23.4 34.8999 23.4C33.4413 23.4 32.0423 23.9795 31.0109 25.0109C29.9794 26.0424 29.4 27.4413 29.4 28.9V36.6Z" fill="#0A6375"/>
<path fill-rule="evenodd" clip-rule="evenodd" d="M79.9715 23.6339C82.0454 23.4634 84.1698 23.561 86.2282 23.6696C86.6713 23.6944 87.028 24.0383 86.993 24.4313C86.989 24.8299 86.6179 25.1318 86.2058 25.1124C84.211 25.0056 82.1516 24.9041 80.174 25.0715C79.7523 25.109 79.3546 24.8161 79.2946 24.4186C79.2344 24.0213 79.5497 23.6717 79.9715 23.6339Z" fill="#FFF1EE"/>
<path fill-rule="evenodd" clip-rule="evenodd" d="M75.1771 15.3911C78.8828 12.957 82.9269 10.975 86.5841 8.45036C86.9123 8.21228 87.4117 8.2816 87.6768 8.60119C87.9418 8.92107 87.8963 9.37527 87.5371 9.60805C83.8783 12.1415 79.8328 14.132 76.1256 16.5749C75.7676 16.8009 75.2702 16.7202 75.0065 16.393C74.7737 16.0713 74.8191 15.6171 75.1771 15.3911Z" fill="#FFF1EE"/>
<path fill-rule="evenodd" clip-rule="evenodd" d="M71.1358 2.91196C70.7522 4.60112 70.3688 6.29031 69.9851 7.97976C69.9186 8.37031 69.4944 8.60835 69.0629 8.51531C68.6315 8.42199 68.3778 8.03668 68.4444 7.64585C68.8285 5.95385 69.2123 4.26211 69.5964 2.5704C69.694 2.18514 70.1177 1.94906 70.5488 2.04436C70.9488 2.13438 71.2333 2.52699 71.1358 2.91196Z" fill="#FFF1EE"/>
<path fill-rule="evenodd" clip-rule="evenodd" d="M77.9488 22.6627C80.0392 22.4909 82.1803 22.5893 84.255 22.6988C84.7017 22.7237 85.0612 23.0704 85.0259 23.4665C85.0219 23.8682 84.6478 24.1725 84.2325 24.1529C82.2219 24.0453 80.1462 23.943 78.153 24.1117C77.7278 24.1495 77.3271 23.8543 77.2665 23.4536C77.2059 23.0532 77.5236 22.7008 77.9488 22.6627Z" fill="#FFB9AA"/>
<path fill-rule="evenodd" clip-rule="evenodd" d="M73.1166 14.3548C76.8516 11.9013 80.9277 9.90368 84.6139 7.35902C84.9446 7.11906 85.448 7.18894 85.7152 7.51106C85.9823 7.83346 85.9364 8.29126 85.5744 8.52589C81.8867 11.0794 77.8091 13.0856 74.0726 15.5479C73.7117 15.7757 73.2104 15.6944 72.9446 15.3646C72.7099 15.0403 72.7557 14.5825 73.1166 14.3548Z" fill="#FFB9AA"/>
<path fill-rule="evenodd" clip-rule="evenodd" d="M69.0432 1.77676C68.6566 3.4793 68.2701 5.18186 67.8834 6.88469C67.8164 7.27832 67.3889 7.51826 66.954 7.42448C66.5191 7.33041 66.2634 6.94205 66.3305 6.54813C66.7176 4.84274 67.1045 3.1376 67.4916 1.43249C67.59 1.04419 68.017 0.80623 68.4515 0.902294C68.8547 0.993027 69.1415 1.38874 69.0432 1.77676Z" fill="#FFB9AA"/>
</svg>
